<svg xmlns="http://www.w3.org/2000/svg" width="115" height="115" viewBox="-4 -4 115 115" fill="none">
  <path d="M25.0049 72.7623C20.6965 66.1721 18.7863 58.2988 19.5961 50.4655C20.4058 42.6327 23.8863 35.3168 29.4521 29.7476C57.8818 1.3095 93.1142 27.3387 103.79 36.5231C99.2584 23.3356 89.7275 12.4579 77.2523 6.23402C64.7771 0.0106927 50.356 -1.05956 37.0992 3.25422C23.8424 7.568 12.8109 16.92 6.38376 29.294C-0.0439725 41.6685 -1.35296 56.0734 2.73923 69.4039C9.92224 71.756 17.448 72.8912 25.0049 72.7623Z" fill="#FF0707"/>
  <path d="M53.6924 67.7103C61.2651 67.7103 67.4033 61.5702 67.4033 53.9953C67.4033 46.421 61.2651 40.2803 53.6924 40.2803C46.1203 40.2803 39.9814 46.421 39.9814 53.9953C39.9814 61.5702 46.1203 67.7103 53.6924 67.7103Z" fill="#C71F1F"/>
  <path d="M104.44 38.5219C97.3178 36.2109 89.8612 35.0955 82.374 35.2221C86.683 41.8129 88.5926 49.6861 87.7828 57.5189C86.973 65.3523 83.4932 72.6676 77.9268 78.2368C49.2803 106.892 13.7197 80.2471 3.34277 71.2562C7.91602 84.3734 17.441 95.1783 29.8781 101.359C42.3152 107.54 56.6772 108.605 69.8895 104.327C83.1024 100.049 94.1162 90.7673 100.573 78.4689C107.031 66.1699 108.419 51.8313 104.44 38.5219Z" fill="#FF0707"/>
</svg>